<svg width="800" height="800" viewBox="0 0 800 800" fill="none" xmlns="http://www.w3.org/2000/svg">
<path d="M545.828 108.328C584.473 108.444 621.502 123.846 648.828 151.172C676.154 178.498 691.556 215.527 691.672 254.172V545.828C691.556 584.473 676.154 621.502 648.828 648.828C621.502 676.154 584.473 691.556 545.828 691.672H254.172C215.527 691.556 178.498 676.154 151.172 648.828C123.846 621.502 108.444 584.473 108.328 545.828V254.172C108.444 215.527 123.846 178.498 151.172 151.172C178.498 123.846 215.527 108.444 254.172 108.328H545.828ZM545.828 50H254.172C141.875 50 50 141.875 50 254.172V545.828C50 658.125 141.875 750 254.172 750H545.828C658.125 750 750 658.125 750 545.828V254.172C750 141.875 658.125 50 545.828 50Z" fill="white"/>
<path d="M589.578 254.172C580.925 254.172 572.467 251.606 565.272 246.799C558.077 241.991 552.47 235.159 549.158 227.164C545.847 219.17 544.981 210.373 546.669 201.887C548.357 193.4 552.524 185.604 558.642 179.486C564.761 173.367 572.556 169.201 581.043 167.513C589.53 165.824 598.326 166.691 606.321 170.002C614.315 173.313 621.148 178.921 625.955 186.116C630.762 193.31 633.328 201.769 633.328 210.422C633.34 216.171 632.217 221.865 630.023 227.179C627.829 232.492 624.607 237.32 620.542 241.385C616.477 245.45 611.649 248.673 606.335 250.867C601.022 253.061 595.327 254.184 589.578 254.172Z" fill="white"/>
<path d="M400 283.328C423.076 283.328 445.633 290.171 464.819 302.991C484.006 315.811 498.96 334.033 507.791 355.352C516.621 376.671 518.932 400.129 514.43 422.762C509.928 445.394 498.816 466.183 482.499 482.499C466.183 498.816 445.394 509.928 422.762 514.43C400.129 518.932 376.671 516.621 355.352 507.791C334.033 498.96 315.811 484.006 302.991 464.819C290.171 445.633 283.328 423.076 283.328 400C283.361 369.067 295.664 339.41 317.537 317.537C339.41 295.664 369.067 283.361 400 283.328ZM400 225C365.388 225 331.554 235.264 302.775 254.493C273.997 273.722 251.566 301.053 238.321 333.03C225.076 365.007 221.61 400.194 228.363 434.141C235.115 468.088 251.782 499.269 276.256 523.744C300.731 548.218 331.913 564.885 365.859 571.637C399.806 578.39 434.993 574.924 466.97 561.679C498.947 548.434 526.278 526.003 545.507 497.225C564.736 468.446 575 434.612 575 400C575 353.587 556.563 309.075 523.744 276.256C490.925 243.437 446.413 225 400 225Z" fill="white"/>
</svg>
